<svg xmlns="http://www.w3.org/2000/svg" width="48" height="42" viewBox="0 0 48 42">
  <g id="icon-command-line" transform="translate(1 1)">
    <rect id="Rectangle-path" width="46" height="40" rx="2" stroke-width="2" stroke="#fff" stroke-linecap="round" stroke-linejoin="round" stroke-miterlimit="10" fill="none"/>
    <path id="Shape" d="M0,0H46" transform="translate(0 10)" fill="none" stroke="#fff" stroke-linecap="round" stroke-linejoin="round" stroke-miterlimit="10" stroke-width="2"/>
    <path id="Shape-2" data-name="Shape" d="M1.5,0A1.5,1.5,0,1,0,2.561.439,1.5,1.5,0,0,0,1.5,0Z" transform="translate(5 4)" fill="#fff"/>
    <path id="Shape-3" data-name="Shape" d="M1.5,0A1.5,1.5,0,1,0,2.561.439,1.5,1.5,0,0,0,1.5,0Z" transform="translate(11 4)" fill="#fff"/>
    <path id="Shape-4" data-name="Shape" d="M1.5,0A1.5,1.5,0,1,0,2.561.439,1.5,1.5,0,0,0,1.5,0Z" transform="translate(17 4)" fill="#fff"/>
    <path id="Shape-5" data-name="Shape" d="M0,0,5,5,0,10" transform="translate(10 20)" fill="none" stroke="#fff" stroke-linecap="round" stroke-linejoin="round" stroke-miterlimit="10" stroke-width="2"/>
    <path id="Shape-6" data-name="Shape" d="M0,0H8" transform="translate(22 26)" fill="none" stroke="#fff" stroke-linecap="round" stroke-linejoin="round" stroke-miterlimit="10" stroke-width="2"/>
  </g>
</svg>
