<svg id="tuple-logo" xmlns="http://www.w3.org/2000/svg" width="139.707" height="52" viewBox="0 0 139.707 52">
  <path id="TUPLE" d="M20.5,16.913a7.8,7.8,0,0,1-2.213-5.993V0h5.875V10.686c0,2.289.429,3.614,2.626,3.614,2.174,0,2.6-1.335,2.6-3.641V0h5.928V10.868c0,2.7-.778,4.763-2.314,6.126a9.1,9.1,0,0,1-6.215,1.933A8.968,8.968,0,0,1,20.5,16.913ZM73.562,18.59V0H86.771V4.524H79.438V7.15h5.824v4.135H79.438v2.782h7.748V18.59Zm-16,0V0h5.9V14.04h6.76v4.55Zm-12.255,0H39.434V0h7.41c5.072,0,7.644,2.143,7.644,6.37v.1c0,3.907-2.623,6.058-7.384,6.058H45.31V18.59h0Zm0-10.011h1.221c1.57,0,2.366-.7,2.366-2.08V6.4c0-1.366-.743-2-2.34-2H45.31ZM10.607,18.59H4.68V4.524H0V0H15.314V4.524H10.608V18.59h0Z" transform="translate(52.52 17.41)" fill="#1f2e41"/>
  <path id="Rectangle_7_Copy" data-name="Rectangle 7 Copy" d="M0,8,24,0V42L0,34Z" transform="translate(8 10)" fill="#bfc6f1"/>
  <path id="Rectangle_7" data-name="Rectangle 7" d="M0,8,24,0V42L0,34Z" fill="#4652af"/>
</svg>
