<?xml version="1.0" standalone="no"?>
<!DOCTYPE svg PUBLIC "-//W3C//DTD SVG 20010904//EN"
 "http://www.w3.org/TR/2001/REC-SVG-20010904/DTD/svg10.dtd">
<svg version="1.0" xmlns="http://www.w3.org/2000/svg"
 width="700.000000pt" height="700.000000pt" viewBox="0 0 700.000000 700.000000"
 preserveAspectRatio="xMidYMid meet">
<metadata>
Created by potrace 1.11, written by Peter Selinger 2001-2013
</metadata>
<g transform="translate(0.000000,700.000000) scale(0.100000,-0.100000)"
fill="#000000" stroke="none">
<path d="M2236 5524 c-22 -8 -54 -25 -72 -39 -28 -21 -1719 -1708 -1807 -1802
-67 -72 -83 -214 -34 -309 37 -73 1814 -1851 1884 -1885 193 -93 417 49 416
264 -1 125 26 94 -843 963 l-785 784 792 793 c874 875 834 829 835 959 2 196
-202 340 -386 272z"/>
<path d="M4575 5527 c-48 -16 -107 -59 -142 -105 -67 -88 -75 -225 -18 -317
10 -16 372 -384 804 -817 l786 -788 -791 -792 c-436 -436 -798 -804 -805 -818
-16 -32 -38 -126 -35 -148 15 -81 20 -100 32 -124 25 -49 76 -99 128 -126 70
-37 188 -38 259 -4 67 34 1855 1821 1888 1888 37 77 34 168 -7 262 -9 18 -403
420 -929 946 -862 862 -918 916 -971 936 -60 22 -143 25 -199 7z"/>
</g>
</svg>
